<svg id="arrow" width="24" height="24" viewBox="0 0 24 24" xmlns="http://www.w3.org/2000/svg">
<g opacity="0.9">
<path d="M12 4.29593L20.727 12.7879C20.7973 12.8578 20.8808 12.9131 20.9726 12.9506C21.0645 12.988 21.1628 13.0068 21.262 13.006C21.3611 13.0052 21.4592 12.9847 21.5503 12.9458C21.6415 12.9068 21.7241 12.8501 21.7933 12.7791C21.8624 12.708 21.9168 12.6239 21.9532 12.5317C21.9897 12.4395 22.0075 12.3409 22.0056 12.2418C22.0037 12.1426 21.9822 12.0448 21.9423 11.954C21.9023 11.8633 21.8448 11.7813 21.773 11.7129L12.523 2.71293C12.383 2.57671 12.1953 2.50049 12 2.50049C11.8046 2.50049 11.617 2.57671 11.477 2.71293L2.22697 11.7129C2.15516 11.7813 2.09762 11.8633 2.05769 11.954C2.01776 12.0448 1.99623 12.1426 1.99434 12.2418C1.99245 12.3409 2.01024 12.4395 2.04669 12.5317C2.08314 12.6239 2.13751 12.708 2.20667 12.7791C2.27583 12.8501 2.35839 12.9068 2.44959 12.9458C2.54079 12.9847 2.63881 13.0052 2.73797 13.006C2.83714 13.0068 2.93548 12.988 3.02731 12.9506C3.11914 12.9131 3.20264 12.8578 3.27297 12.7879L12 4.29593Z" />
</g>
</svg>
