<svg id="dermatology" width="25" height="24" viewBox="0 0 25 24" xmlns="http://www.w3.org/2000/svg">
<path d="M2.5 21V12C2.5 11.45 2.696 10.9793 3.088 10.588C3.48 10.1966 3.95067 10.0006 4.5 9.99996H9.5V12C9.5 12.8333 9.79167 13.5416 10.375 14.125C10.9583 14.7083 11.6667 15 12.5 15C13.3333 15 14.0417 14.7083 14.625 14.125C15.2083 13.5416 15.5 12.8333 15.5 12V9.99996H20.5C21.05 9.99996 21.521 10.196 21.913 10.588C22.305 10.98 22.5007 11.4506 22.5 12V21H2.5ZM4.5 19H20.5V12H17.5C17.5 13.3833 17.0123 14.5626 16.037 15.538C15.0617 16.5133 13.8827 17.0006 12.5 17C11.1173 16.9993 9.93833 16.5116 8.963 15.537C7.98767 14.5623 7.5 13.3833 7.5 12H4.5V19ZM12.5 13C12.2167 13 11.9793 12.904 11.788 12.712C11.5967 12.52 11.5007 12.2826 11.5 12C11.5 10.1833 11.7083 8.39162 12.125 6.62496C12.5417 4.85829 13.45 3.39996 14.85 2.24996C15.0667 2.06662 15.3083 1.98729 15.575 2.01196C15.8417 2.03662 16.0667 2.15762 16.25 2.37496C16.4333 2.59229 16.5127 2.83396 16.488 3.09996C16.4633 3.36596 16.3423 3.59096 16.125 3.77496C14.9583 4.75829 14.2293 5.99162 13.938 7.47496C13.6467 8.95829 13.5007 10.4666 13.5 12C13.5 12.2833 13.404 12.521 13.212 12.713C13.02 12.905 12.7827 13.0006 12.5 13ZM6.25 15.5C6.46667 15.5 6.646 15.429 6.788 15.287C6.93 15.145 7.00067 14.966 7 14.75C6.99933 14.534 6.92833 14.355 6.787 14.213C6.64567 14.071 6.46667 14 6.25 14C6.03333 14 5.85433 14.071 5.713 14.213C5.57167 14.355 5.50067 14.534 5.5 14.75C5.49933 14.966 5.57033 15.1453 5.713 15.288C5.85567 15.4306 6.03467 15.5013 6.25 15.5ZM7.25 18C7.46667 18 7.646 17.929 7.788 17.787C7.93 17.645 8.00067 17.466 8 17.25C7.99933 17.034 7.92833 16.855 7.787 16.713C7.64567 16.571 7.46667 16.5 7.25 16.5C7.03333 16.5 6.85433 16.571 6.713 16.713C6.57167 16.855 6.50067 17.034 6.5 17.25C6.49933 17.466 6.57033 17.6453 6.713 17.788C6.85567 17.9306 7.03467 18.0013 7.25 18ZM18.75 15.5C18.9667 15.5 19.146 15.429 19.288 15.287C19.43 15.145 19.5007 14.966 19.5 14.75C19.4993 14.534 19.4283 14.355 19.287 14.213C19.1457 14.071 18.9667 14 18.75 14C18.5333 14 18.3543 14.071 18.213 14.213C18.0717 14.355 18.0007 14.534 18 14.75C17.9993 14.966 18.0703 15.1453 18.213 15.288C18.3557 15.4306 18.5347 15.5013 18.75 15.5Z" />
</svg>
