<svg id="gastroenterology" width="25" height="24" viewBox="0 0 25 24"  xmlns="http://www.w3.org/2000/svg">
<path d="M3.5 22V16C3.5 15.1667 3.79167 14.4583 4.375 13.875C4.95833 13.2917 5.66667 13 6.5 13H8.5C9.33333 13 10.0417 12.7083 10.625 12.125C11.2083 11.5417 11.5 10.8333 11.5 10C11.5 9.71667 11.404 9.47933 11.212 9.288C11.02 9.09667 10.7827 9.00067 10.5 9C9.95 9 9.47933 8.80433 9.088 8.413C8.69667 8.02167 8.50067 7.55067 8.5 7V2H10.5V7C11.3333 7 12.0417 7.29167 12.625 7.875C13.2083 8.45833 13.5 9.16667 13.5 10C13.5 11.3833 13.0123 12.5627 12.037 13.538C11.0617 14.5133 9.88267 15.0007 8.5 15H6.5C6.21667 15 5.97933 15.096 5.788 15.288C5.59667 15.48 5.50067 15.7173 5.5 16V22H3.5ZM9.5 22H7.5V20C7.5 19.1667 7.79167 18.4583 8.375 17.875C8.95833 17.2917 9.66667 17 10.5 17H14.5C15.8833 17 17.0627 16.5123 18.038 15.537C19.0133 14.5617 19.5007 13.3827 19.5 12V11C19.5 9.61667 19.0123 8.43767 18.037 7.463C17.0617 6.48833 15.8827 6.00067 14.5 6C13.95 6 13.4793 5.80433 13.088 5.413C12.6967 5.02167 12.5007 4.55067 12.5 4V2H14.5V4C16.45 4 18.1043 4.67933 19.463 6.038C20.8217 7.39667 21.5007 9.05067 21.5 11V12C21.5 13.95 20.821 15.6043 19.463 16.963C18.105 18.3217 16.4507 19.0007 14.5 19H10.5C10.2167 19 9.97933 19.096 9.788 19.288C9.59667 19.48 9.50067 19.7173 9.5 20V22ZM5.5 16C5.50067 15.7173 5.59667 15.48 5.788 15.288C5.97933 15.096 6.21667 15 6.5 15H8.5C9.88333 15 11.0627 14.5123 12.038 13.537C13.0133 12.5617 13.5007 11.3827 13.5 10C13.5 11.3833 13.0123 12.5627 12.037 13.538C11.0617 14.5133 9.88267 15.0007 8.5 15H6.5C6.21667 15 5.97933 15.096 5.788 15.288C5.59667 15.48 5.50067 15.7173 5.5 16Z" />
</svg>
