<svg id="psychotherapy" width="25" height="24" viewBox="0 0 25 24" xmlns="http://www.w3.org/2000/svg">
<path d="M11.5001 2C13.4426 2.00013 15.3188 2.70688 16.7787 3.98843C18.2385 5.26999 19.1823 7.03882 19.4341 8.965L21.6841 12.504C21.8321 12.737 21.8021 13.084 21.4591 13.232L19.5001 14.07V17C19.5001 17.5304 19.2894 18.0391 18.9143 18.4142C18.5392 18.7893 18.0305 19 17.5001 19H15.5011L15.5001 22H6.50007V18.306C6.50007 17.126 6.06407 16.009 5.25507 15.001C4.31278 13.8245 3.72205 12.4056 3.55097 10.908C3.37988 9.41036 3.63539 7.89486 4.28807 6.53611C4.94074 5.17737 5.96401 4.03066 7.23998 3.22811C8.51595 2.42557 9.9927 1.99985 11.5001 2ZM11.5001 4C10.3697 3.99995 9.26222 4.31925 8.30534 4.9211C7.34845 5.52295 6.58106 6.38287 6.09155 7.40181C5.60204 8.42075 5.41034 9.55724 5.53852 10.6804C5.66671 11.8035 6.10956 12.8676 6.81607 13.75C7.91007 15.114 8.50007 16.667 8.50007 18.306V20H13.5001L13.5021 17H17.5001V12.752L19.0501 12.088L17.5071 9.663L17.4501 9.221C17.2608 7.77691 16.5527 6.45095 15.458 5.49033C14.3633 4.52972 12.9565 4.00002 11.5001 4ZM11.5001 7C11.7653 7 12.0196 7.10536 12.2072 7.29289C12.3947 7.48043 12.5001 7.73478 12.5001 8V9H13.5001C13.7653 9 14.0196 9.10536 14.2072 9.29289C14.3947 9.48043 14.5001 9.73478 14.5001 10C14.5001 10.2652 14.3947 10.5196 14.2072 10.7071C14.0196 10.8946 13.7653 11 13.5001 11H12.5001V12C12.5001 12.2652 12.3947 12.5196 12.2072 12.7071C12.0196 12.8946 11.7653 13 11.5001 13C11.2349 13 10.9805 12.8946 10.793 12.7071C10.6054 12.5196 10.5001 12.2652 10.5001 12V10.999L9.50007 11C9.23486 11 8.9805 10.8946 8.79297 10.7071C8.60543 10.5196 8.50007 10.2652 8.50007 10C8.50007 9.73478 8.60543 9.48043 8.79297 9.29289C8.9805 9.10536 9.23486 9 9.50007 9L10.5001 8.999V8C10.5001 7.73478 10.6054 7.48043 10.793 7.29289C10.9805 7.10536 11.2349 7 11.5001 7Z" />
</svg>
