<svg id="appointment" width="24" height="24" viewBox="0 0 24 24" xmlns="http://www.w3.org/2000/svg">
<path d="M10 4C9.46957 4 8.96086 4.21071 8.58579 4.58579C8.21071 4.96086 8 5.46957 8 6V8H6C5.46957 8 4.96086 8.21071 4.58579 8.58579C4.21071 8.96086 4 9.46957 4 10V14C4 14.5304 4.21071 15.0391 4.58579 15.4142C4.96086 15.7893 5.46957 16 6 16H8V18C8 18.5304 8.21071 19.0391 8.58579 19.4142C8.96086 19.7893 9.46957 20 10 20H14C14.5304 20 15.0391 19.7893 15.4142 19.4142C15.7893 19.0391 16 18.5304 16 18V16H18C18.5304 16 19.0391 15.7893 19.4142 15.4142C19.7893 15.0391 20 14.5304 20 14V10C20 9.46957 19.7893 8.96086 19.4142 8.58579C19.0391 8.21071 18.5304 8 18 8H16V6C16 5.46957 15.7893 4.96086 15.4142 4.58579C15.0391 4.21071 14.5304 4 14 4H10Z" />
</svg>
