<svg id="calendar" width="24" height="25" viewBox="0 0 24 25" xmlns="http://www.w3.org/2000/svg">
<g clip-path="url(#clip0_169_16661)">
<path d="M21.4998 4.50008H18.8332V6.50008C18.8332 6.69268 18.7952 6.8834 18.7215 7.06135C18.6478 7.23929 18.5398 7.40097 18.4036 7.53717C18.2674 7.67336 18.1057 7.78139 17.9278 7.8551C17.7498 7.92881 17.5591 7.96674 17.3665 7.96674C17.1739 7.96674 16.9832 7.92881 16.8052 7.8551C16.6273 7.78139 16.4656 7.67336 16.3294 7.53717C16.1932 7.40097 16.0852 7.23929 16.0115 7.06135C15.9378 6.8834 15.8998 6.69268 15.8998 6.50008V4.50008H8.13318V6.50008C8.13318 6.88906 7.97866 7.26211 7.7036 7.53717C7.42855 7.81222 7.0555 7.96674 6.66651 7.96674C6.27753 7.96674 5.90448 7.81222 5.62942 7.53717C5.35437 7.26211 5.19985 6.88906 5.19985 6.50008V4.50008H2.53318C2.37453 4.49827 2.21713 4.5283 2.07028 4.58838C1.92344 4.64847 1.79013 4.73739 1.67825 4.84989C1.56638 4.9624 1.47819 5.09619 1.41892 5.24336C1.35965 5.39054 1.33049 5.5481 1.33318 5.70674V20.6267C1.33053 20.7826 1.35861 20.9374 1.41581 21.0824C1.47301 21.2274 1.55821 21.3597 1.66655 21.4718C1.77489 21.5838 1.90425 21.6734 2.04722 21.7355C2.1902 21.7975 2.344 21.8308 2.49985 21.8334H21.4998C21.6557 21.8308 21.8095 21.7975 21.9525 21.7355C22.0954 21.6734 22.2248 21.5838 22.3331 21.4718C22.4415 21.3597 22.5267 21.2274 22.5839 21.0824C22.6411 20.9374 22.6692 20.7826 22.6665 20.6267V5.70674C22.6692 5.5509 22.6411 5.39607 22.5839 5.25108C22.5267 5.10609 22.4415 4.97379 22.3331 4.86174C22.2248 4.74968 22.0954 4.66007 21.9525 4.59802C21.8095 4.53596 21.6557 4.50268 21.4998 4.50008ZM6.66651 17.8334H5.33318V16.5001H6.66651V17.8334ZM6.66651 14.5001H5.33318V13.1667H6.66651V14.5001ZM6.66651 11.1667H5.33318V9.83341H6.66651V11.1667ZM10.6665 17.8334H9.33318V16.5001H10.6665V17.8334ZM10.6665 14.5001H9.33318V13.1667H10.6665V14.5001ZM10.6665 11.1667H9.33318V9.83341H10.6665V11.1667ZM14.6665 17.8334H13.3332V16.5001H14.6665V17.8334ZM14.6665 14.5001H13.3332V13.1667H14.6665V14.5001ZM14.6665 11.1667H13.3332V9.83341H14.6665V11.1667ZM18.6665 17.8334H17.3332V16.5001H18.6665V17.8334ZM18.6665 14.5001H17.3332V13.1667H18.6665V14.5001ZM18.6665 11.1667H17.3332V9.83341H18.6665V11.1667Z" />
<path d="M6.66667 7.16634C6.84348 7.16634 7.01305 7.0961 7.13807 6.97108C7.2631 6.84605 7.33333 6.67649 7.33333 6.49967V2.49967C7.33333 2.32286 7.2631 2.15329 7.13807 2.02827C7.01305 1.90325 6.84348 1.83301 6.66667 1.83301C6.48986 1.83301 6.32029 1.90325 6.19526 2.02827C6.07024 2.15329 6 2.32286 6 2.49967V6.49967C6 6.67649 6.07024 6.84605 6.19526 6.97108C6.32029 7.0961 6.48986 7.16634 6.66667 7.16634Z" />
<path d="M17.3332 7.16634C17.51 7.16634 17.6796 7.0961 17.8046 6.97108C17.9296 6.84605 17.9998 6.67649 17.9998 6.49967V2.49967C17.9998 2.32286 17.9296 2.15329 17.8046 2.02827C17.6796 1.90325 17.51 1.83301 17.3332 1.83301C17.1564 1.83301 16.9868 1.90325 16.8618 2.02827C16.7367 2.15329 16.6665 2.32286 16.6665 2.49967V6.49967C16.6665 6.67649 16.7367 6.84605 16.8618 6.97108C16.9868 7.0961 17.1564 7.16634 17.3332 7.16634Z" />
</g>
<defs>
<clipPath id="clip0_169_16661">
<rect width="24" height="24" fill="white" transform="translate(0 0.5)"/>
</clipPath>
</defs>
</svg>
