<svg width="32" height="32" viewBox="0 0 32 32" fill="none" xmlns="http://www.w3.org/2000/svg">
<path d="M19.7867 21.68C23.8133 22.44 26.6667 24.3866 26.6667 26.6666V29.3333H5.33333V26.6666C5.33333 24.3866 8.18666 22.44 12.2133 21.68L16 28L19.7867 21.68ZM10.6667 10.6666H21.3333V13.3333C21.3333 14.7478 20.7714 16.1044 19.7712 17.1045C18.771 18.1047 17.4145 18.6666 16 18.6666C14.5855 18.6666 13.229 18.1047 12.2288 17.1045C11.2286 16.1044 10.6667 14.7478 10.6667 13.3333V10.6666ZM10.6667 9.33331L11.2133 3.86664C11.2465 3.53661 11.4015 3.23079 11.648 3.0089C11.8946 2.78701 12.215 2.66498 12.5467 2.66664H19.4667C20.1467 2.66664 20.72 3.18664 20.7867 3.86664L21.3333 9.33331H10.6667ZM16 3.99998H14.6667V5.33331H13.3333V6.66664H14.6667V7.99998H16V6.66664H17.3333V5.33331H16V3.99998Z" fill="#15181B"/>
</svg>
