<svg id="urology" width="25" height="24" viewBox="0 0 25 24" xmlns="http://www.w3.org/2000/svg">
<path d="M9.5 23V20.975C9.08333 20.8917 8.725 20.7043 8.425 20.413C8.125 20.1217 7.93333 19.759 7.85 19.325L7.525 17.325C7.425 16.7083 7.575 16.1667 7.975 15.7C8.375 15.2333 8.88333 15 9.5 15V13.825C9.33333 13.8917 9.17067 13.9377 9.012 13.963C8.85333 13.9883 8.68267 14.0007 8.5 14C6.83333 14 5.41667 13.4167 4.25 12.25C3.08333 11.0833 2.5 9.66667 2.5 8V7C2.5 5.33333 3.08333 3.91667 4.25 2.75C5.41667 1.58333 6.83333 1 8.5 1C9.33333 1 10.0417 1.29167 10.625 1.875C11.2083 2.45833 11.5 3.16667 11.5 4C11.5 4.83333 11.2083 5.54167 10.625 6.125C10.0417 6.70833 9.33333 7 8.5 7H6.5V5H8.5C8.78333 5 9.021 4.904 9.213 4.712C9.405 4.52 9.50067 4.28267 9.5 4C9.49933 3.71733 9.40333 3.48 9.212 3.288C9.02067 3.096 8.78333 3 8.5 3C7.4 3 6.45833 3.39167 5.675 4.175C4.89167 4.95833 4.5 5.9 4.5 7V8C4.5 9.1 4.89167 10.0417 5.675 10.825C6.45833 11.6083 7.4 12 8.5 12C8.78333 12 9.021 11.904 9.213 11.712C9.405 11.52 9.50067 11.2827 9.5 11C9.49933 10.7173 9.40333 10.48 9.212 10.288C9.02067 10.096 8.78333 10 8.5 10H6.5V8H8.5C9.33333 8 10.0417 8.29167 10.625 8.875C11.2083 9.45833 11.5 10.1667 11.5 11V15H13.5V11C13.5 10.1667 13.7917 9.45833 14.375 8.875C14.9583 8.29167 15.6667 8 16.5 8H18.5V10H16.5C16.2167 10 15.9793 10.096 15.788 10.288C15.5967 10.48 15.5007 10.7173 15.5 11C15.4993 11.2827 15.5953 11.5203 15.788 11.713C15.9807 11.9057 16.218 12.0013 16.5 12C17.6 12 18.5417 11.6083 19.325 10.825C20.1083 10.0417 20.5 9.1 20.5 8V7C20.5 5.9 20.1083 4.95833 19.325 4.175C18.5417 3.39167 17.6 3 16.5 3C16.2167 3 15.9793 3.09567 15.788 3.287C15.5967 3.47833 15.5007 3.716 15.5 4C15.4993 4.284 15.5953 4.52167 15.788 4.713C15.9807 4.90433 16.218 5 16.5 5H18.5V7H16.5C15.6667 7 14.9583 6.70833 14.375 6.125C13.7917 5.54167 13.5 4.83333 13.5 4C13.5 3.16667 13.7917 2.45833 14.375 1.875C14.9583 1.29167 15.6667 1 16.5 1C18.1667 1 19.5833 1.58333 20.75 2.75C21.9167 3.91667 22.5 5.33333 22.5 7V8C22.5 9.66667 21.9167 11.0833 20.75 12.25C19.5833 13.4167 18.1667 14 16.5 14C16.3167 14 16.1457 13.9873 15.987 13.962C15.8283 13.9367 15.666 13.8913 15.5 13.826V15C16.1167 15 16.625 15.2333 17.025 15.7C17.425 16.1667 17.575 16.7083 17.475 17.325L17.15 19.325C17.0667 19.7583 16.875 20.121 16.575 20.413C16.275 20.705 15.9167 20.8923 15.5 20.975V23H13.5V21H11.5V23H9.5ZM9.5 17L9.825 19H15.175L15.5 17H9.5Z" />
</svg>
