<svg id="neurology" width="25" height="24" viewBox="0 0 25 24" xmlns="http://www.w3.org/2000/svg">
<path d="M10.25 21C9.4 21 8.66667 20.704 8.05 20.112C7.43333 19.52 7.08333 18.808 7 17.976C6 17.842 5.16667 17.4 4.5 16.65C3.83333 15.9 3.5 15.0167 3.5 14C3.5 13.65 3.546 13.3043 3.638 12.963C3.73 12.6217 3.86733 12.3007 4.05 12C3.86667 11.7 3.72933 11.3833 3.638 11.05C3.54667 10.7167 3.50067 10.3667 3.5 10C3.5 8.98333 3.83333 8.10433 4.5 7.363C5.16667 6.62167 5.99167 6.184 6.975 6.05C7.025 5.2 7.36667 4.47933 8 3.888C8.63333 3.29667 9.38333 3.00067 10.25 3C10.6833 3 11.0877 3.08333 11.463 3.25C11.8383 3.41667 12.184 3.64167 12.5 3.925C12.8 3.64167 13.1417 3.41667 13.525 3.25C13.9083 3.08333 14.3167 3 14.75 3C15.6167 3 16.3627 3.29167 16.988 3.875C17.6133 4.45833 17.9507 5.175 18 6.025C18.9833 6.15833 19.8127 6.6 20.488 7.35C21.1633 8.1 21.5007 8.98333 21.5 10C21.5 10.3667 21.4543 10.7167 21.363 11.05C21.2717 11.3833 21.134 11.7 20.95 12C21.1333 12.3 21.271 12.621 21.363 12.963C21.455 13.305 21.5007 13.6507 21.5 14C21.5 15.0333 21.1627 15.921 20.488 16.663C19.8133 17.405 18.9757 17.8423 17.975 17.975C17.8917 18.8083 17.546 19.521 16.938 20.113C16.33 20.705 15.6007 21.0007 14.75 21C14.3333 21 13.929 20.9207 13.537 20.762C13.145 20.6033 12.7993 20.3827 12.5 20.1C12.1833 20.3833 11.8333 20.6043 11.45 20.763C11.0667 20.9217 10.6667 21.0007 10.25 21ZM13.5 6.25V17.75C13.5 18.1 13.621 18.396 13.863 18.638C14.105 18.88 14.4007 19.0007 14.75 19C15.0833 19 15.371 18.8667 15.613 18.6C15.855 18.3333 15.984 18.0333 16 17.7C15.65 17.5667 15.3293 17.3877 15.038 17.163C14.7467 16.9383 14.484 16.6673 14.25 16.35C14.0833 16.1167 14.021 15.8667 14.063 15.6C14.105 15.3333 14.2423 15.1167 14.475 14.95C14.7077 14.7833 14.9577 14.721 15.225 14.763C15.4923 14.805 15.709 14.9423 15.875 15.175C16.0583 15.4417 16.2917 15.646 16.575 15.788C16.8583 15.93 17.1667 16.0007 17.5 16C18.05 16 18.521 15.8043 18.913 15.413C19.305 15.0217 19.5007 14.5507 19.5 14C19.5 13.9167 19.496 13.8333 19.488 13.75C19.48 13.6667 19.459 13.5833 19.425 13.5C19.1417 13.6667 18.8373 13.7917 18.512 13.875C18.1867 13.9583 17.8493 14 17.5 14C17.2167 14 16.9793 13.904 16.788 13.712C16.5967 13.52 16.5007 13.2827 16.5 13C16.4993 12.7173 16.5953 12.48 16.788 12.288C16.9807 12.096 17.218 12 17.5 12C18.05 12 18.521 11.8043 18.913 11.413C19.305 11.0217 19.5007 10.5507 19.5 10C19.4993 9.44933 19.3037 8.98267 18.913 8.6C18.5223 8.21733 18.0513 8.01733 17.5 8C17.3167 8.3 17.0793 8.56267 16.788 8.788C16.4967 9.01333 16.1757 9.19233 15.825 9.325C15.5583 9.425 15.3 9.41667 15.05 9.3C14.8 9.18333 14.6333 8.99167 14.55 8.725C14.4667 8.45833 14.4793 8.2 14.588 7.95C14.6967 7.7 14.884 7.53333 15.15 7.45C15.4 7.36667 15.6043 7.21667 15.763 7C15.9217 6.78333 16.0007 6.53333 16 6.25C16 5.9 15.8793 5.60433 15.638 5.363C15.3967 5.12167 15.1007 5.00067 14.75 5C14.3993 4.99933 14.1033 5.12033 13.862 5.363C13.6207 5.60567 13.5 5.90133 13.5 6.25ZM11.5 17.75V6.25C11.5 5.9 11.379 5.604 11.137 5.362C10.895 5.12 10.5993 4.99933 10.25 5C9.90067 5.00067 9.60467 5.12167 9.362 5.363C9.11933 5.60433 8.99867 5.9 9 6.25C9 6.51667 9.075 6.76267 9.225 6.988C9.375 7.21333 9.575 7.36733 9.825 7.45C10.0917 7.53333 10.2833 7.7 10.4 7.95C10.5167 8.2 10.5333 8.45833 10.45 8.725C10.35 8.99167 10.175 9.18333 9.925 9.3C9.675 9.41667 9.41667 9.425 9.15 9.325C8.8 9.19167 8.479 9.01267 8.187 8.788C7.895 8.56333 7.65767 8.30067 7.475 8C6.94167 8.01667 6.47933 8.221 6.088 8.613C5.69667 9.005 5.50067 9.46733 5.5 10C5.5 10.55 5.696 11.021 6.088 11.413C6.48 11.805 6.95067 12.0007 7.5 12C7.78333 12 8.021 12.096 8.213 12.288C8.405 12.48 8.50067 12.7173 8.5 13C8.49933 13.2827 8.40333 13.5203 8.212 13.713C8.02067 13.9057 7.78333 14.0013 7.5 14C7.15 14 6.81267 13.9583 6.488 13.875C6.16333 13.7917 5.859 13.6667 5.575 13.5C5.54167 13.5833 5.521 13.6667 5.513 13.75C5.505 13.8333 5.50067 13.9167 5.5 14C5.5 14.55 5.696 15.021 6.088 15.413C6.48 15.805 6.95067 16.0007 7.5 16C7.83333 16 8.14167 15.929 8.425 15.787C8.70833 15.645 8.94167 15.441 9.125 15.175C9.29167 14.9417 9.50833 14.804 9.775 14.762C10.0417 14.72 10.2917 14.7827 10.525 14.95C10.7583 15.1173 10.896 15.334 10.938 15.6C10.98 15.866 10.9173 16.116 10.75 16.35C10.5167 16.6667 10.25 16.9417 9.95 17.175C9.65 17.4083 9.325 17.5917 8.975 17.725C8.99167 18.0583 9.125 18.3543 9.375 18.613C9.625 18.8717 9.91667 19.0007 10.25 19C10.6 19 10.896 18.879 11.138 18.637C11.38 18.395 11.5007 18.0993 11.5 17.75Z" />
</svg>
